<svg xmlns="http://www.w3.org/2000/svg" xmlns:xlink="http://www.w3.org/1999/xlink" width="394" zoomAndPan="magnify" viewBox="0 0 295.5 119.999999" height="160" preserveAspectRatio="xMidYMid meet" version="1.0"><defs><g/><clipPath id="5923049d35"><path d="M 7 37.5625 L 271 37.5625 L 271 98.550781 L 7 98.550781 Z M 7 37.5625 " clip-rule="nonzero"/></clipPath><clipPath id="957bdfb7bf"><path d="M 19.726562 37.5625 L 258.328125 37.5625 C 261.707031 37.5625 264.941406 38.902344 267.332031 41.289062 C 269.71875 43.675781 271.058594 46.914062 271.058594 50.289062 L 271.058594 85.820312 C 271.058594 89.199219 269.71875 92.4375 267.332031 94.824219 C 264.941406 97.210938 261.707031 98.550781 258.328125 98.550781 L 19.726562 98.550781 C 16.351562 98.550781 13.113281 97.210938 10.726562 94.824219 C 8.339844 92.4375 7 89.199219 7 85.820312 L 7 50.289062 C 7 46.914062 8.339844 43.675781 10.726562 41.289062 C 13.113281 38.902344 16.351562 37.5625 19.726562 37.5625 Z M 19.726562 37.5625 " clip-rule="nonzero"/></clipPath><clipPath id="a1af3590a4"><path d="M 0 0.101562 L 65.886719 0.101562 L 65.886719 89.199219 L 0 89.199219 Z M 0 0.101562 " clip-rule="nonzero"/></clipPath></defs><g clip-path="url(#5923049d35)"><g clip-path="url(#957bdfb7bf)"><path fill="#000000" d="M 7 37.5625 L 270.96875 37.5625 L 270.96875 98.550781 L 7 98.550781 Z M 7 37.5625 " fill-opacity="1" fill-rule="nonzero"/></g></g><g clip-path="url(#a1af3590a4)"><path fill="#ffb929" d="M 65.550781 37.621094 L 64.042969 24.289062 C 63.773438 21.953125 61.789062 20.171875 59.433594 20.171875 L 51.929688 20.171875 L 51.929688 16.371094 C 51.929688 7.441406 44.671875 0.183594 35.742188 0.183594 C 26.8125 0.183594 19.558594 7.441406 19.558594 16.371094 L 19.558594 20.171875 L 12.054688 20.171875 C 9.695312 20.171875 7.710938 21.953125 7.441406 24.289062 L 0.664062 83.800781 C 0.332031 86.652344 2.566406 89.132812 5.4375 89.132812 L 7.960938 89.132812 C 18.378906 44.421875 51.761719 38.21875 65.550781 37.621094 Z M 49.863281 25.03125 C 51 25.03125 51.929688 25.960938 51.929688 27.097656 C 51.929688 28.234375 51 29.164062 49.863281 29.164062 C 48.722656 29.164062 47.792969 28.234375 47.792969 27.097656 C 47.792969 25.960938 48.722656 25.03125 49.863281 25.03125 Z M 23.691406 16.390625 C 23.691406 9.753906 29.085938 4.339844 35.742188 4.339844 C 42.398438 4.339844 47.792969 9.753906 47.792969 16.390625 L 47.792969 20.195312 L 23.691406 20.195312 Z M 21.625 25.03125 C 22.761719 25.03125 23.691406 25.960938 23.691406 27.097656 C 23.691406 28.234375 22.761719 29.164062 21.625 29.164062 C 20.488281 29.164062 19.558594 28.234375 19.558594 27.097656 C 19.558594 25.960938 20.488281 25.03125 21.625 25.03125 Z M 21.625 25.03125 " fill-opacity="1" fill-rule="nonzero"/></g><g fill="#ffb929" fill-opacity="1"><g transform="translate(33.059205, 88.129549)"><g><path d="M 5.328125 -3.25 L 5.328125 -37.984375 C 5.328125 -39.015625 5.679688 -39.882812 6.390625 -40.59375 C 7.097656 -41.300781 7.96875 -41.65625 9 -41.65625 L 9.765625 -41.65625 C 10.554688 -41.65625 11.226562 -41.46875 11.78125 -41.09375 C 12.332031 -40.71875 12.785156 -40.253906 13.140625 -39.703125 L 25.6875 -20.0625 L 38.28125 -39.765625 C 39.070312 -41.023438 40.175781 -41.65625 41.59375 -41.65625 L 42.359375 -41.65625 C 43.390625 -41.65625 44.257812 -41.300781 44.96875 -40.59375 C 45.675781 -39.882812 46.03125 -39.015625 46.03125 -37.984375 L 46.03125 -3.3125 C 46.03125 -2.289062 45.675781 -1.429688 44.96875 -0.734375 C 44.257812 -0.046875 43.390625 0.296875 42.359375 0.296875 C 41.378906 0.296875 40.53125 -0.0546875 39.8125 -0.765625 C 39.101562 -1.472656 38.75 -2.320312 38.75 -3.3125 L 38.75 -28.171875 L 28.640625 -12.953125 C 28.242188 -12.367188 27.796875 -11.90625 27.296875 -11.5625 C 26.804688 -11.226562 26.226562 -11.0625 25.5625 -11.0625 C 24.894531 -11.0625 24.320312 -11.226562 23.84375 -11.5625 C 23.375 -11.90625 22.941406 -12.367188 22.546875 -12.953125 L 12.484375 -28.046875 L 12.484375 -3.25 C 12.484375 -2.226562 12.140625 -1.378906 11.453125 -0.703125 C 10.765625 -0.0351562 9.90625 0.296875 8.875 0.296875 C 7.851562 0.296875 7.003906 -0.0351562 6.328125 -0.703125 C 5.660156 -1.378906 5.328125 -2.226562 5.328125 -3.25 Z M 5.328125 -3.25 "/></g></g></g><g fill="#ffb929" fill-opacity="1"><g transform="translate(78.261017, 88.129549)"><g><path d="M 19.46875 -31.890625 C 21.875 -31.890625 24.09375 -31.460938 26.125 -30.609375 C 28.15625 -29.765625 29.910156 -28.601562 31.390625 -27.125 C 32.867188 -25.644531 34.019531 -23.925781 34.84375 -21.96875 C 35.675781 -20.019531 36.09375 -17.925781 36.09375 -15.6875 L 36.09375 -15.5625 C 36.09375 -13.351562 35.664062 -11.257812 34.8125 -9.28125 C 33.96875 -7.3125 32.804688 -5.585938 31.328125 -4.109375 C 29.847656 -2.628906 28.082031 -1.457031 26.03125 -0.59375 C 23.976562 0.269531 21.75 0.703125 19.34375 0.703125 C 16.976562 0.703125 14.78125 0.28125 12.75 -0.5625 C 10.71875 -1.40625 8.960938 -2.554688 7.484375 -4.015625 C 6.003906 -5.484375 4.847656 -7.203125 4.015625 -9.171875 C 3.191406 -11.140625 2.78125 -13.226562 2.78125 -15.4375 L 2.78125 -15.5625 C 2.78125 -17.8125 3.203125 -19.921875 4.046875 -21.890625 C 4.898438 -23.867188 6.066406 -25.597656 7.546875 -27.078125 C 9.023438 -28.554688 10.78125 -29.726562 12.8125 -30.59375 C 14.84375 -31.457031 17.0625 -31.890625 19.46875 -31.890625 Z M 19.46875 -5.5625 C 20.925781 -5.5625 22.234375 -5.828125 23.390625 -6.359375 C 24.554688 -6.890625 25.554688 -7.597656 26.390625 -8.484375 C 27.222656 -9.378906 27.851562 -10.425781 28.28125 -11.625 C 28.71875 -12.832031 28.9375 -14.101562 28.9375 -15.4375 L 28.9375 -15.5625 C 28.9375 -16.945312 28.695312 -18.25 28.21875 -19.46875 C 27.75 -20.6875 27.085938 -21.75 26.234375 -22.65625 C 25.390625 -23.570312 24.382812 -24.296875 23.21875 -24.828125 C 22.0625 -25.359375 20.769531 -25.625 19.34375 -25.625 C 17.925781 -25.625 16.632812 -25.359375 15.46875 -24.828125 C 14.3125 -24.296875 13.316406 -23.582031 12.484375 -22.6875 C 11.660156 -21.800781 11.03125 -20.753906 10.59375 -19.546875 C 10.15625 -18.347656 9.9375 -17.0625 9.9375 -15.6875 L 9.9375 -15.5625 C 9.9375 -14.21875 10.171875 -12.929688 10.640625 -11.703125 C 11.117188 -10.484375 11.78125 -9.421875 12.625 -8.515625 C 13.476562 -7.609375 14.484375 -6.890625 15.640625 -6.359375 C 16.804688 -5.828125 18.082031 -5.5625 19.46875 -5.5625 Z M 19.46875 -5.5625 "/></g></g></g><g fill="#ffb929" fill-opacity="1"><g transform="translate(110.978787, 88.129549)"><g><path d="M 8.046875 -43.484375 C 9.066406 -43.484375 9.921875 -43.148438 10.609375 -42.484375 C 11.304688 -41.816406 11.65625 -40.96875 11.65625 -39.9375 L 11.65625 -26.03125 C 12.800781 -27.65625 14.222656 -29.035156 15.921875 -30.171875 C 17.617188 -31.316406 19.75 -31.890625 22.3125 -31.890625 C 24.164062 -31.890625 25.957031 -31.535156 27.6875 -30.828125 C 29.425781 -30.117188 30.960938 -29.070312 32.296875 -27.6875 C 33.640625 -26.3125 34.726562 -24.613281 35.5625 -22.59375 C 36.394531 -20.582031 36.8125 -18.28125 36.8125 -15.6875 L 36.8125 -15.5625 C 36.8125 -12.957031 36.40625 -10.648438 35.59375 -8.640625 C 34.78125 -6.628906 33.691406 -4.929688 32.328125 -3.546875 C 30.972656 -2.171875 29.425781 -1.125 27.6875 -0.40625 C 25.957031 0.300781 24.164062 0.65625 22.3125 0.65625 C 19.707031 0.65625 17.554688 0.101562 15.859375 -1 C 14.160156 -2.101562 12.757812 -3.390625 11.65625 -4.859375 L 11.65625 -3.25 C 11.65625 -2.269531 11.304688 -1.429688 10.609375 -0.734375 C 9.921875 -0.046875 9.066406 0.296875 8.046875 0.296875 C 7.054688 0.296875 6.21875 -0.046875 5.53125 -0.734375 C 4.84375 -1.429688 4.5 -2.269531 4.5 -3.25 L 4.5 -39.9375 C 4.5 -40.96875 4.832031 -41.816406 5.5 -42.484375 C 6.175781 -43.148438 7.023438 -43.484375 8.046875 -43.484375 Z M 11.484375 -15.6875 L 11.484375 -15.5625 C 11.484375 -14.0625 11.726562 -12.695312 12.21875 -11.46875 C 12.707031 -10.25 13.363281 -9.195312 14.1875 -8.3125 C 15.019531 -7.425781 15.988281 -6.742188 17.09375 -6.265625 C 18.195312 -5.796875 19.363281 -5.5625 20.59375 -5.5625 C 21.8125 -5.5625 22.960938 -5.796875 24.046875 -6.265625 C 25.140625 -6.742188 26.085938 -7.40625 26.890625 -8.25 C 27.703125 -9.101562 28.34375 -10.148438 28.8125 -11.390625 C 29.289062 -12.628906 29.53125 -14.019531 29.53125 -15.5625 L 29.53125 -15.6875 C 29.53125 -17.175781 29.289062 -18.539062 28.8125 -19.78125 C 28.34375 -21.03125 27.703125 -22.085938 26.890625 -22.953125 C 26.085938 -23.828125 25.140625 -24.5 24.046875 -24.96875 C 22.960938 -25.445312 21.8125 -25.6875 20.59375 -25.6875 C 19.363281 -25.6875 18.195312 -25.445312 17.09375 -24.96875 C 15.988281 -24.5 15.019531 -23.816406 14.1875 -22.921875 C 13.363281 -22.035156 12.707031 -20.976562 12.21875 -19.75 C 11.726562 -18.53125 11.484375 -17.175781 11.484375 -15.6875 Z M 11.484375 -15.6875 "/></g></g></g><g fill="#ffb929" fill-opacity="1"><g transform="translate(144.524878, 88.129549)"><g><path d="M 4.90625 -27.984375 C 4.90625 -29.015625 5.238281 -29.875 5.90625 -30.5625 C 6.582031 -31.25 7.4375 -31.59375 8.46875 -31.59375 C 9.488281 -31.59375 10.34375 -31.25 11.03125 -30.5625 C 11.726562 -29.875 12.078125 -29.015625 12.078125 -27.984375 L 12.078125 -3.25 C 12.078125 -2.226562 11.726562 -1.378906 11.03125 -0.703125 C 10.34375 -0.0351562 9.488281 0.296875 8.46875 0.296875 C 7.476562 0.296875 6.632812 -0.0351562 5.9375 -0.703125 C 5.25 -1.378906 4.90625 -2.226562 4.90625 -3.25 Z M 8.46875 -43.140625 C 9.601562 -43.140625 10.566406 -42.820312 11.359375 -42.1875 C 12.148438 -41.5625 12.546875 -40.710938 12.546875 -39.640625 L 12.546875 -39.296875 C 12.546875 -38.222656 12.148438 -37.359375 11.359375 -36.703125 C 10.566406 -36.054688 9.601562 -35.734375 8.46875 -35.734375 C 7.320312 -35.734375 6.351562 -36.054688 5.5625 -36.703125 C 4.769531 -37.359375 4.375 -38.222656 4.375 -39.296875 L 4.375 -39.640625 C 4.375 -40.710938 4.769531 -41.5625 5.5625 -42.1875 C 6.351562 -42.820312 7.320312 -43.140625 8.46875 -43.140625 Z M 8.46875 -43.140625 "/></g></g></g><g fill="#ffb929" fill-opacity="1"><g transform="translate(155.292034, 88.129549)"><g><path d="M 4.90625 -39.9375 C 4.90625 -40.925781 5.238281 -41.765625 5.90625 -42.453125 C 6.582031 -43.140625 7.4375 -43.484375 8.46875 -43.484375 C 9.488281 -43.484375 10.34375 -43.140625 11.03125 -42.453125 C 11.726562 -41.765625 12.078125 -40.925781 12.078125 -39.9375 L 12.078125 -3.25 C 12.078125 -2.226562 11.726562 -1.378906 11.03125 -0.703125 C 10.34375 -0.0351562 9.488281 0.296875 8.46875 0.296875 C 7.476562 0.296875 6.632812 -0.0351562 5.9375 -0.703125 C 5.25 -1.378906 4.90625 -2.226562 4.90625 -3.25 Z M 4.90625 -39.9375 "/></g></g></g><g fill="#ffb929" fill-opacity="1"><g transform="translate(166.059189, 88.129549)"><g><path d="M 2.78125 -15.625 C 2.78125 -17.875 3.15625 -19.984375 3.90625 -21.953125 C 4.65625 -23.921875 5.707031 -25.644531 7.0625 -27.125 C 8.425781 -28.601562 10.035156 -29.765625 11.890625 -30.609375 C 13.742188 -31.460938 15.796875 -31.890625 18.046875 -31.890625 C 20.535156 -31.890625 22.707031 -31.425781 24.5625 -30.5 C 26.414062 -29.570312 27.960938 -28.367188 29.203125 -26.890625 C 30.441406 -25.410156 31.367188 -23.765625 31.984375 -21.953125 C 32.597656 -20.140625 32.90625 -18.328125 32.90625 -16.515625 C 32.90625 -15.484375 32.566406 -14.648438 31.890625 -14.015625 C 31.222656 -13.390625 30.4375 -13.078125 29.53125 -13.078125 L 9.9375 -13.078125 C 10.332031 -10.472656 11.335938 -8.5 12.953125 -7.15625 C 14.578125 -5.8125 16.570312 -5.140625 18.9375 -5.140625 C 20.4375 -5.140625 21.785156 -5.382812 22.984375 -5.875 C 24.191406 -6.375 25.304688 -7.039062 26.328125 -7.875 C 26.609375 -8.070312 26.875 -8.226562 27.125 -8.34375 C 27.382812 -8.457031 27.734375 -8.515625 28.171875 -8.515625 C 28.953125 -8.515625 29.617188 -8.238281 30.171875 -7.6875 C 30.722656 -7.132812 31 -6.445312 31 -5.625 C 31 -5.1875 30.910156 -4.769531 30.734375 -4.375 C 30.554688 -3.976562 30.332031 -3.664062 30.0625 -3.4375 C 28.632812 -2.164062 27.023438 -1.15625 25.234375 -0.40625 C 23.441406 0.332031 21.300781 0.703125 18.8125 0.703125 C 16.5625 0.703125 14.457031 0.3125 12.5 -0.46875 C 10.550781 -1.257812 8.859375 -2.363281 7.421875 -3.78125 C 5.984375 -5.207031 4.847656 -6.914062 4.015625 -8.90625 C 3.191406 -10.894531 2.78125 -13.09375 2.78125 -15.5 Z M 9.875 -17.8125 L 25.921875 -17.8125 C 25.796875 -18.957031 25.535156 -20.03125 25.140625 -21.03125 C 24.753906 -22.039062 24.222656 -22.910156 23.546875 -23.640625 C 22.878906 -24.367188 22.082031 -24.945312 21.15625 -25.375 C 20.226562 -25.8125 19.171875 -26.03125 17.984375 -26.03125 C 15.734375 -26.03125 13.898438 -25.28125 12.484375 -23.78125 C 11.066406 -22.28125 10.195312 -20.289062 9.875 -17.8125 Z M 9.875 -17.8125 "/></g></g></g><g fill="#ffb929" fill-opacity="1"><g transform="translate(195.641163, 88.129549)"><g><path d="M 5.328125 -38.109375 C 5.328125 -39.128906 5.679688 -39.984375 6.390625 -40.671875 C 7.097656 -41.367188 7.96875 -41.71875 9 -41.71875 C 10.019531 -41.71875 10.875 -41.367188 11.5625 -40.671875 C 12.257812 -39.984375 12.609375 -39.128906 12.609375 -38.109375 L 12.609375 -6.625 L 31.359375 -6.625 C 32.265625 -6.625 33.039062 -6.296875 33.6875 -5.640625 C 34.34375 -4.992188 34.671875 -4.21875 34.671875 -3.3125 C 34.671875 -2.40625 34.34375 -1.625 33.6875 -0.96875 C 33.039062 -0.320312 32.265625 0 31.359375 0 L 9 0 C 7.96875 0 7.097656 -0.351562 6.390625 -1.0625 C 5.679688 -1.769531 5.328125 -2.640625 5.328125 -3.671875 Z M 5.328125 -38.109375 "/></g></g></g><g fill="#ffb929" fill-opacity="1"><g transform="translate(226.11063, 88.129549)"><g><path d="M 19.46875 -31.890625 C 21.875 -31.890625 24.09375 -31.460938 26.125 -30.609375 C 28.15625 -29.765625 29.910156 -28.601562 31.390625 -27.125 C 32.867188 -25.644531 34.019531 -23.925781 34.84375 -21.96875 C 35.675781 -20.019531 36.09375 -17.925781 36.09375 -15.6875 L 36.09375 -15.5625 C 36.09375 -13.351562 35.664062 -11.257812 34.8125 -9.28125 C 33.96875 -7.3125 32.804688 -5.585938 31.328125 -4.109375 C 29.847656 -2.628906 28.082031 -1.457031 26.03125 -0.59375 C 23.976562 0.269531 21.75 0.703125 19.34375 0.703125 C 16.976562 0.703125 14.78125 0.28125 12.75 -0.5625 C 10.71875 -1.40625 8.960938 -2.554688 7.484375 -4.015625 C 6.003906 -5.484375 4.847656 -7.203125 4.015625 -9.171875 C 3.191406 -11.140625 2.78125 -13.226562 2.78125 -15.4375 L 2.78125 -15.5625 C 2.78125 -17.8125 3.203125 -19.921875 4.046875 -21.890625 C 4.898438 -23.867188 6.066406 -25.597656 7.546875 -27.078125 C 9.023438 -28.554688 10.78125 -29.726562 12.8125 -30.59375 C 14.84375 -31.457031 17.0625 -31.890625 19.46875 -31.890625 Z M 19.46875 -5.5625 C 20.925781 -5.5625 22.234375 -5.828125 23.390625 -6.359375 C 24.554688 -6.890625 25.554688 -7.597656 26.390625 -8.484375 C 27.222656 -9.378906 27.851562 -10.425781 28.28125 -11.625 C 28.71875 -12.832031 28.9375 -14.101562 28.9375 -15.4375 L 28.9375 -15.5625 C 28.9375 -16.945312 28.695312 -18.25 28.21875 -19.46875 C 27.75 -20.6875 27.085938 -21.75 26.234375 -22.65625 C 25.390625 -23.570312 24.382812 -24.296875 23.21875 -24.828125 C 22.0625 -25.359375 20.769531 -25.625 19.34375 -25.625 C 17.925781 -25.625 16.632812 -25.359375 15.46875 -24.828125 C 14.3125 -24.296875 13.316406 -23.582031 12.484375 -22.6875 C 11.660156 -21.800781 11.03125 -20.753906 10.59375 -19.546875 C 10.15625 -18.347656 9.9375 -17.0625 9.9375 -15.6875 L 9.9375 -15.5625 C 9.9375 -14.21875 10.171875 -12.929688 10.640625 -11.703125 C 11.117188 -10.484375 11.78125 -9.421875 12.625 -8.515625 C 13.476562 -7.609375 14.484375 -6.890625 15.640625 -6.359375 C 16.804688 -5.828125 18.082031 -5.5625 19.46875 -5.5625 Z M 19.46875 -5.5625 "/></g></g></g><g fill="#111b1e" fill-opacity="1"><g transform="translate(69.883137, 111.434144)"><g><path d="M 3.890625 0.140625 C 3.367188 0.140625 2.890625 0.0546875 2.453125 -0.109375 C 2.015625 -0.273438 1.632812 -0.507812 1.3125 -0.8125 C 1 -1.125 0.753906 -1.488281 0.578125 -1.90625 C 0.398438 -2.320312 0.3125 -2.78125 0.3125 -3.28125 C 0.3125 -3.78125 0.398438 -4.238281 0.578125 -4.65625 C 0.753906 -5.082031 1 -5.445312 1.3125 -5.75 C 1.632812 -6.0625 2.015625 -6.300781 2.453125 -6.46875 C 2.890625 -6.632812 3.367188 -6.71875 3.890625 -6.71875 C 4.421875 -6.71875 4.898438 -6.632812 5.328125 -6.46875 C 5.765625 -6.300781 6.144531 -6.0625 6.46875 -5.75 C 6.789062 -5.445312 7.035156 -5.082031 7.203125 -4.65625 C 7.378906 -4.238281 7.46875 -3.78125 7.46875 -3.28125 C 7.46875 -2.78125 7.378906 -2.320312 7.203125 -1.90625 C 7.035156 -1.488281 6.789062 -1.125 6.46875 -0.8125 C 6.144531 -0.507812 5.765625 -0.273438 5.328125 -0.109375 C 4.898438 0.0546875 4.421875 0.140625 3.890625 0.140625 Z M 2.25 -3.28125 C 2.25 -2.957031 2.316406 -2.664062 2.453125 -2.40625 C 2.597656 -2.15625 2.796875 -1.957031 3.046875 -1.8125 C 3.296875 -1.675781 3.578125 -1.609375 3.890625 -1.609375 C 4.222656 -1.609375 4.507812 -1.675781 4.75 -1.8125 C 5 -1.957031 5.191406 -2.15625 5.328125 -2.40625 C 5.472656 -2.664062 5.546875 -2.957031 5.546875 -3.28125 C 5.546875 -3.613281 5.472656 -3.90625 5.328125 -4.15625 C 5.191406 -4.40625 5 -4.597656 4.75 -4.734375 C 4.507812 -4.878906 4.222656 -4.953125 3.890625 -4.953125 C 3.578125 -4.953125 3.296875 -4.878906 3.046875 -4.734375 C 2.796875 -4.597656 2.597656 -4.40625 2.453125 -4.15625 C 2.316406 -3.90625 2.25 -3.613281 2.25 -3.28125 Z M 2.25 -3.28125 "/></g></g></g><g fill="#111b1e" fill-opacity="1"><g transform="translate(83.482214, 111.434144)"><g><path d="M 0.6875 0 L 0.6875 -6.578125 L 2.25 -6.578125 L 4.75 -3.234375 L 4.75 -6.578125 L 6.609375 -6.578125 L 6.609375 0 L 5.078125 0 L 2.578125 -3.359375 L 2.578125 0 Z M 0.6875 0 "/></g></g></g><g fill="#111b1e" fill-opacity="1"><g transform="translate(96.59279, 111.434144)"><g><path d="M 0.6875 0 L 0.6875 -6.578125 L 2.59375 -6.578125 L 2.59375 -1.75 L 5.28125 -1.75 L 5.28125 0 Z M 0.6875 0 "/></g></g></g><g fill="#111b1e" fill-opacity="1"><g transform="translate(107.899684, 111.434144)"><g><path d="M 0.6875 0 L 0.6875 -6.578125 L 2.59375 -6.578125 L 2.59375 0 Z M 0.6875 0 "/></g></g></g><g fill="#111b1e" fill-opacity="1"><g transform="translate(116.980151, 111.434144)"><g><path d="M 0.6875 0 L 0.6875 -6.578125 L 2.25 -6.578125 L 4.75 -3.234375 L 4.75 -6.578125 L 6.609375 -6.578125 L 6.609375 0 L 5.078125 0 L 2.578125 -3.359375 L 2.578125 0 Z M 0.6875 0 "/></g></g></g><g fill="#111b1e" fill-opacity="1"><g transform="translate(130.090726, 111.434144)"><g><path d="M 0.6875 0 L 0.6875 -6.578125 L 5.203125 -6.578125 L 5.203125 -5.046875 L 2.578125 -5.046875 L 2.578125 -4.078125 L 4.953125 -4.078125 L 4.953125 -2.5625 L 2.578125 -2.5625 L 2.578125 -1.546875 L 5.3125 -1.546875 L 5.3125 0 Z M 0.6875 0 "/></g></g></g><g fill="#111b1e" fill-opacity="1"><g transform="translate(141.613682, 111.434144)"><g/></g></g><g fill="#111b1e" fill-opacity="1"><g transform="translate(149.576237, 111.434144)"><g><path d="M 3.046875 0.140625 C 2.203125 0.140625 1.535156 -0.0625 1.046875 -0.46875 C 0.566406 -0.875 0.328125 -1.425781 0.328125 -2.125 L 2.15625 -2.125 C 2.15625 -1.875 2.234375 -1.675781 2.390625 -1.53125 C 2.546875 -1.394531 2.757812 -1.328125 3.03125 -1.328125 C 3.257812 -1.328125 3.4375 -1.375 3.5625 -1.46875 C 3.695312 -1.5625 3.765625 -1.6875 3.765625 -1.84375 C 3.765625 -2.207031 3.367188 -2.46875 2.578125 -2.625 C 1.109375 -2.90625 0.375 -3.597656 0.375 -4.703125 C 0.375 -5.328125 0.597656 -5.816406 1.046875 -6.171875 C 1.492188 -6.535156 2.109375 -6.71875 2.890625 -6.71875 C 3.421875 -6.71875 3.882812 -6.625 4.28125 -6.4375 C 4.6875 -6.257812 4.992188 -6.003906 5.203125 -5.671875 C 5.421875 -5.335938 5.53125 -4.941406 5.53125 -4.484375 L 3.75 -4.484375 C 3.75 -4.734375 3.675781 -4.925781 3.53125 -5.0625 C 3.382812 -5.195312 3.179688 -5.265625 2.921875 -5.265625 C 2.703125 -5.265625 2.523438 -5.21875 2.390625 -5.125 C 2.265625 -5.03125 2.203125 -4.90625 2.203125 -4.75 C 2.203125 -4.570312 2.285156 -4.425781 2.453125 -4.3125 C 2.628906 -4.207031 2.929688 -4.109375 3.359375 -4.015625 C 4.148438 -3.835938 4.726562 -3.578125 5.09375 -3.234375 C 5.46875 -2.898438 5.65625 -2.460938 5.65625 -1.921875 C 5.65625 -1.273438 5.425781 -0.769531 4.96875 -0.40625 C 4.507812 -0.0390625 3.867188 0.140625 3.046875 0.140625 Z M 3.046875 0.140625 "/></g></g></g><g fill="#111b1e" fill-opacity="1"><g transform="translate(161.371628, 111.434144)"><g><path d="M 2.265625 0 L 2.265625 -4.8125 L 0.265625 -4.8125 L 0.265625 -6.578125 L 6.15625 -6.578125 L 6.15625 -4.8125 L 4.15625 -4.8125 L 4.15625 0 Z M 2.265625 0 "/></g></g></g><g fill="#111b1e" fill-opacity="1"><g transform="translate(173.58036, 111.434144)"><g><path d="M 3.890625 0.140625 C 3.367188 0.140625 2.890625 0.0546875 2.453125 -0.109375 C 2.015625 -0.273438 1.632812 -0.507812 1.3125 -0.8125 C 1 -1.125 0.753906 -1.488281 0.578125 -1.90625 C 0.398438 -2.320312 0.3125 -2.78125 0.3125 -3.28125 C 0.3125 -3.78125 0.398438 -4.238281 0.578125 -4.65625 C 0.753906 -5.082031 1 -5.445312 1.3125 -5.75 C 1.632812 -6.0625 2.015625 -6.300781 2.453125 -6.46875 C 2.890625 -6.632812 3.367188 -6.71875 3.890625 -6.71875 C 4.421875 -6.71875 4.898438 -6.632812 5.328125 -6.46875 C 5.765625 -6.300781 6.144531 -6.0625 6.46875 -5.75 C 6.789062 -5.445312 7.035156 -5.082031 7.203125 -4.65625 C 7.378906 -4.238281 7.46875 -3.78125 7.46875 -3.28125 C 7.46875 -2.78125 7.378906 -2.320312 7.203125 -1.90625 C 7.035156 -1.488281 6.789062 -1.125 6.46875 -0.8125 C 6.144531 -0.507812 5.765625 -0.273438 5.328125 -0.109375 C 4.898438 0.0546875 4.421875 0.140625 3.890625 0.140625 Z M 2.25 -3.28125 C 2.25 -2.957031 2.316406 -2.664062 2.453125 -2.40625 C 2.597656 -2.15625 2.796875 -1.957031 3.046875 -1.8125 C 3.296875 -1.675781 3.578125 -1.609375 3.890625 -1.609375 C 4.222656 -1.609375 4.507812 -1.675781 4.75 -1.8125 C 5 -1.957031 5.191406 -2.15625 5.328125 -2.40625 C 5.472656 -2.664062 5.546875 -2.957031 5.546875 -3.28125 C 5.546875 -3.613281 5.472656 -3.90625 5.328125 -4.15625 C 5.191406 -4.40625 5 -4.597656 4.75 -4.734375 C 4.507812 -4.878906 4.222656 -4.953125 3.890625 -4.953125 C 3.578125 -4.953125 3.296875 -4.878906 3.046875 -4.734375 C 2.796875 -4.597656 2.597656 -4.40625 2.453125 -4.15625 C 2.316406 -3.90625 2.25 -3.613281 2.25 -3.28125 Z M 2.25 -3.28125 "/></g></g></g><g fill="#111b1e" fill-opacity="1"><g transform="translate(187.179435, 111.434144)"><g><path d="M 0.6875 0 L 0.6875 -6.578125 L 3.6875 -6.578125 C 4.21875 -6.578125 4.675781 -6.476562 5.0625 -6.28125 C 5.445312 -6.09375 5.742188 -5.820312 5.953125 -5.46875 C 6.160156 -5.125 6.265625 -4.707031 6.265625 -4.21875 C 6.265625 -3.757812 6.171875 -3.359375 5.984375 -3.015625 C 5.796875 -2.671875 5.53125 -2.40625 5.1875 -2.21875 L 6.390625 0 L 4.25 0 L 3.3125 -1.875 L 2.59375 -1.875 L 2.59375 0 Z M 2.546875 -3.375 L 3.4375 -3.375 C 3.738281 -3.375 3.96875 -3.445312 4.125 -3.59375 C 4.28125 -3.738281 4.359375 -3.941406 4.359375 -4.203125 C 4.359375 -4.460938 4.28125 -4.664062 4.125 -4.8125 C 3.96875 -4.957031 3.738281 -5.03125 3.4375 -5.03125 L 2.546875 -5.03125 Z M 2.546875 -3.375 "/></g></g></g><g fill="#111b1e" fill-opacity="1"><g transform="translate(199.735749, 111.434144)"><g><path d="M 0.6875 0 L 0.6875 -6.578125 L 5.203125 -6.578125 L 5.203125 -5.046875 L 2.578125 -5.046875 L 2.578125 -4.078125 L 4.953125 -4.078125 L 4.953125 -2.5625 L 2.578125 -2.5625 L 2.578125 -1.546875 L 5.3125 -1.546875 L 5.3125 0 Z M 0.6875 0 "/></g></g></g></svg>